<svg width="119" height="119" viewBox="0 0 119 119" fill="none" xmlns="http://www.w3.org/2000/svg">
<path d="M7.4375 43.1375C7.4375 30.6413 7.4375 24.3932 9.86942 19.6203C12.0086 15.422 15.422 12.0086 19.6203 9.86942C24.3932 7.4375 30.6413 7.4375 43.1375 7.4375H75.8625C88.3587 7.4375 94.6068 7.4375 99.3797 9.86942C103.578 12.0086 106.991 15.422 109.131 19.6203C111.562 24.3932 111.562 30.6413 111.562 43.1375V75.8625C111.562 88.3587 111.562 94.6068 109.131 99.3797C106.991 103.578 103.578 106.991 99.3797 109.131C94.6068 111.562 88.3587 111.562 75.8625 111.562H43.1375C30.6413 111.562 24.3932 111.562 19.6203 109.131C15.422 106.991 12.0086 103.578 9.86942 99.3797C7.4375 94.6068 7.4375 88.3587 7.4375 75.8625V43.1375Z" fill="url(#paint0_linear_6_66)"/>
<path d="M90.2735 37.2867C84.6442 32.5267 77.889 30.1467 70.7586 29.75L69.6327 30.94C76.0126 32.5267 81.6419 35.7 86.8959 40.0633C80.5161 36.4933 73.3856 34.1133 65.8799 33.32C63.6282 32.9233 61.7517 32.9233 59.5 32.9233C57.2483 32.9233 55.3718 32.9233 53.1201 33.32C45.6144 34.1133 38.4839 36.4933 32.1041 40.0633C37.3581 35.7 42.9874 32.5267 49.3673 30.94L48.2414 29.75C41.111 30.1467 34.3558 32.5267 28.7265 37.2867C22.3466 49.98 18.969 64.26 18.5938 78.9367C24.2231 85.2833 32.1041 89.25 40.3604 89.25C40.3604 89.25 42.9874 86.0767 44.8638 83.3C39.9851 82.11 35.4817 79.3333 32.4794 74.97C35.1064 76.5567 37.7334 78.1433 40.3604 79.3333C43.738 80.92 47.1155 81.7133 50.4931 82.5067C53.4954 82.9033 56.4977 83.3 59.5 83.3C62.5023 83.3 65.5046 82.9033 68.5069 82.5067C71.8845 81.7133 75.262 80.92 78.6396 79.3333C81.2666 78.1433 83.8936 76.5567 86.5206 74.97C83.5184 79.3333 79.0149 82.11 74.1362 83.3C76.0126 86.0767 78.6396 89.25 78.6396 89.25C86.8959 89.25 94.777 85.2833 100.406 78.9367C100.031 64.26 96.6534 49.98 90.2735 37.2867ZM47.1155 71.7967C43.3627 71.7967 39.9851 68.2267 39.9851 63.8633C39.9851 59.5 43.3627 55.93 47.1155 55.93C50.8684 55.93 54.246 59.5 54.246 63.8633C54.246 68.2267 50.8684 71.7967 47.1155 71.7967ZM71.8845 71.7967C68.1316 71.7967 64.754 68.2267 64.754 63.8633C64.754 59.5 68.1316 55.93 71.8845 55.93C75.6373 55.93 79.0149 59.5 79.0149 63.8633C79.0149 68.2267 75.6373 71.7967 71.8845 71.7967Z" fill="white"/>
<defs>
<linearGradient id="paint0_linear_6_66" x1="59.5" y1="7.4375" x2="59.5" y2="111.562" gradientUnits="userSpaceOnUse">
<stop stop-color="#687EC9"/>
<stop offset="1" stop-color="#5971C3"/>
</linearGradient>
</defs>
</svg>
