<svg width="119" height="119" viewBox="0 0 119 119" fill="none" xmlns="http://www.w3.org/2000/svg">
<path d="M7.4375 44.4597C7.4375 31.5007 7.4375 25.0212 9.95949 20.0716C12.1779 15.7177 15.7177 12.1779 20.0716 9.95949C25.0212 7.4375 31.5007 7.4375 44.4597 7.4375H74.5403C87.4993 7.4375 93.9788 7.4375 98.9284 9.95949C103.282 12.1779 106.822 15.7177 109.041 20.0716C111.562 25.0212 111.562 31.5007 111.562 44.4597V74.5403C111.562 87.4993 111.562 93.9788 109.041 98.9284C106.822 103.282 103.282 106.822 98.9284 109.041C93.9788 111.562 87.4993 111.562 74.5403 111.562H44.4597C31.5007 111.562 25.0212 111.562 20.0716 109.041C15.7177 106.822 12.1779 103.282 9.95949 98.9284C7.4375 93.9788 7.4375 87.4993 7.4375 74.5403V44.4597Z" fill="white"/>
<path d="M82.0032 31.6948L59.7387 49.0704L36.9651 31.6948V31.6995L36.9926 31.723V56.0535L59.4819 73.8047L82.0032 56.7391V31.6948Z" fill="#EA4335"/>
<path d="M87.8498 27.4681L82.0028 31.6946V56.7389L100.401 42.613V34.1037C100.401 34.1037 98.1681 21.9502 87.8498 27.4681Z" fill="#FBBC05"/>
<path d="M82.0028 56.7394V89.2223H96.1045C96.1045 89.2223 100.117 88.8091 100.406 84.2351V42.6135L82.0028 56.7394Z" fill="#34A853"/>
<path d="M36.9936 89.2497V56.053L36.9651 56.0295L36.9936 89.2497Z" fill="#C5221F"/>
<path d="M36.9649 31.6996L31.15 27.4966C20.8317 21.9787 18.5938 34.1275 18.5938 34.1275V42.6368L36.9649 56.0301V31.6996Z" fill="#C5221F"/>
<path d="M36.9651 31.6992V56.0297L36.9936 56.0532V31.7227L36.9651 31.6992Z" fill="#C5221F"/>
<path d="M18.5938 42.6414V84.2629C18.8781 88.8416 22.8953 89.2501 22.8953 89.2501H36.997L36.9649 56.0299L18.5938 42.6414Z" fill="#4285F4"/>
</svg>
